<svg xmlns="http://www.w3.org/2000/svg" viewBox="0 0 30 30">
  <defs>
    <linearGradient id="yt-grad" x1="0%" y1="0%" x2="100%" y2="100%">
      <stop offset="0%" style="stop-color:#FF0000"/>
      <stop offset="100%" style="stop-color:#CC0000"/>
    </linearGradient>
    <style>
      .z-breathe {
        animation: breathe 2.5s ease-in-out infinite;
      }
      @keyframes breathe {
        0%, 100% { opacity: 0.85; }
        50% { opacity: 1; }
      }
    </style>
  </defs>
  <rect x="1.49" y="1.49" width="27.02" height="27.02" rx="5" fill="url(#yt-grad)"/>
  <g class="z-breathe">
    <path fill="#FFFFFF" d="M22.01 11.19a2.26 2.26 0 00-1.59-1.6C18.88 9.15 15 9.15 15 9.15s-3.88 0-5.42.44a2.26 2.26 0 00-1.59 1.6C7.55 12.73 7.55 15 7.55 15s0 2.27.44 3.81a2.26 2.26 0 001.59 1.6c1.54.44 5.42.44 5.42.44s3.88 0 5.42-.44a2.26 2.26 0 001.59-1.6c.44-1.54.44-3.81.44-3.81s0-2.27-.44-3.81z"/>
    <polygon fill="#FF0000" points="13.18,17.68 13.18,12.32 17.73,15"/>
  </g>
</svg>
